<?xml version="1.0" standalone="no"?>
<!DOCTYPE svg PUBLIC "-//W3C//DTD SVG 20010904//EN"
 "http://www.w3.org/TR/2001/REC-SVG-20010904/DTD/svg10.dtd">
<svg version="1.0" xmlns="http://www.w3.org/2000/svg"
 width="1024.000000pt" height="227.000000pt" viewBox="0 0 1024.000000 227.000000"
 preserveAspectRatio="xMidYMid meet">

<g transform="translate(0.000000,227.000000) scale(0.100000,-0.100000)"
fill="#000000" stroke="none">
<path d="M2 1130 c1 -624 3 -1118 5 -1097 4 36 6 37 44 38 21 1 49 2 62 2 19
1 22 -4 25 -36 l3 -37 70 0 69 0 0 38 c0 34 3 38 23 36 12 -1 39 -3 60 -3 36
-1 37 -2 37 -36 l0 -35 75 0 75 0 0 41 0 42 38 -7 c20 -3 49 -6 65 -6 24 0 27
-4 27 -35 l0 -35 70 0 70 0 0 35 0 35 65 0 65 0 0 -35 0 -35 75 0 75 0 0 38 0
37 65 -3 65 -4 0 -34 0 -34 70 0 70 0 0 35 0 35 65 0 65 0 0 -35 0 -35 70 0
70 0 0 35 0 35 65 0 65 0 0 -35 0 -35 70 0 70 0 0 35 0 35 60 0 c33 0 63 1 68
3 4 1 8 -15 10 -35 l3 -38 70 0 69 0 0 41 c0 33 3 40 16 35 9 -3 37 -6 63 -6
l47 0 -4 -35 -4 -35 76 0 76 0 0 35 0 35 55 0 c30 0 58 1 63 3 4 1 8 -15 10
-35 l3 -38 69 0 69 0 3 38 c2 20 6 36 11 35 4 -2 34 -3 67 -3 l60 0 0 -35 0
-35 70 0 70 0 0 41 c0 33 3 40 16 35 9 -3 38 -6 65 -6 l49 0 0 -35 0 -35 70 0
70 0 0 35 0 35 65 0 65 0 0 -35 0 -35 69 0 70 0 3 35 c2 20 6 35 11 35 4 0 34
0 68 0 35 0 58 -4 54 -10 -3 -5 -3 -21 1 -35 5 -21 12 -25 41 -25 34 0 35 1
31 35 l-4 35 68 0 68 0 0 -35 0 -35 70 0 70 0 0 41 c0 33 3 40 16 35 9 -3 38
-6 65 -6 l49 0 0 -35 0 -35 75 0 75 0 0 38 0 37 60 -3 60 -4 0 -34 0 -34 75 0
75 0 0 38 0 39 63 -2 62 -3 3 -36 3 -36 70 0 69 0 0 38 0 37 65 -3 65 -4 0
-34 0 -34 70 0 70 0 0 35 0 35 65 0 65 0 0 -35 0 -35 75 0 75 0 0 40 c0 36 2
39 23 36 12 -3 39 -5 60 -5 36 -1 37 -2 37 -36 l0 -35 75 0 75 0 0 38 0 37 65
-3 65 -4 0 -34 0 -34 70 0 70 0 0 35 0 35 65 0 65 0 0 -35 0 -35 75 0 75 0 0
38 0 37 62 -1 63 -2 -3 -36 -4 -36 76 0 76 0 0 35 0 35 65 0 65 0 0 -35 0 -35
70 0 70 0 0 38 0 37 65 0 65 0 0 -37 0 -38 70 0 70 0 0 35 0 35 65 0 65 0 0
-35 0 -35 75 0 75 0 0 39 0 39 88 -3 c48 -1 93 -3 100 -4 7 0 12 -15 12 -36
l0 -35 70 0 70 0 0 35 0 35 65 0 65 0 0 -35 0 -35 70 0 70 0 0 35 0 35 65 0
65 0 0 -35 0 -35 70 0 70 0 0 35 0 35 65 0 65 0 0 -35 0 -35 75 0 75 0 0 35 0
35 65 0 65 0 0 -35 0 -35 70 0 70 0 0 35 0 35 65 0 65 0 0 -35 0 -35 70 0 70
0 0 35 0 35 65 0 65 0 0 -35 0 -35 75 0 75 0 0 41 c0 33 3 40 16 35 9 -3 38
-6 65 -6 l49 0 0 -35 0 -35 70 0 70 0 0 40 c0 36 2 39 23 36 12 -3 41 -5 65
-5 41 -1 42 -2 42 -36 l0 -35 70 0 70 0 0 35 0 35 65 0 65 0 0 -35 0 -35 73 0
72 0 0 37 c0 34 2 37 28 36 15 -1 42 -1 61 -2 33 -1 35 -3 39 -38 2 -21 4 411
5 960 l2 997 -65 0 -65 0 0 65 0 65 60 0 59 0 4 -62 c2 -35 4 -2 5 72 l2 136
-5120 0 -5120 0 2 -1136z m130 1065 l3 -65 -62 0 -63 0 0 58 c0 32 3 62 7 65
3 4 30 7 59 7 l52 0 4 -65z m268 0 l0 -65 -60 0 -60 0 0 65 0 65 60 0 60 0 0
-65z m278 -2 l3 -63 -66 0 -65 0 0 65 0 66 63 -3 62 -3 3 -62z m272 1 l0 -64
-65 0 -65 0 0 65 0 66 65 -2 65 -2 0 -63z m272 1 l3 -65 -62 0 -63 0 0 65 0
65 59 0 59 0 4 -65z m272 -3 l1 -62 -62 0 -63 0 0 65 0 66 61 -3 61 -3 2 -63z
m276 3 l0 -65 -65 0 -65 0 0 65 0 65 65 0 65 0 0 -65z m272 -3 l3 -62 -65 0
-65 0 2 53 c0 28 1 58 2 65 1 8 18 11 60 10 l59 -3 4 -63z m276 1 l3 -63 -66
0 -65 0 0 65 0 66 63 -3 62 -3 3 -62z m270 0 l3 -63 -66 0 -65 0 0 65 0 66 63
-3 62 -3 3 -62z m280 0 l4 -63 -71 0 -71 0 0 58 c0 32 3 62 7 66 4 4 34 6 68
4 l60 -3 3 -62z m264 1 l3 -64 -62 0 -63 0 0 65 0 66 59 -2 59 -2 4 -63z m278
1 l0 -65 -65 0 -65 0 0 65 0 65 65 0 65 0 0 -65z m270 0 l0 -65 -65 0 -65 0 0
65 0 65 65 0 65 0 0 -65z m200 16 c0 -27 3 -56 6 -65 5 -14 -4 -16 -60 -16
l-66 0 0 65 0 65 60 0 60 0 0 -49z m280 -16 l0 -65 -65 0 -65 0 0 65 0 65 65
0 65 0 0 -65z m270 -2 l0 -63 -59 0 -59 0 -4 61 c-1 33 -1 63 2 65 2 3 30 4
62 3 l58 -2 0 -64z m278 0 l3 -63 -66 0 -65 0 0 65 0 66 63 -3 62 -3 3 -62z
m270 0 l3 -63 -66 0 -65 0 0 65 0 66 63 -3 62 -3 3 -62z m272 2 l0 -65 -65 0
-65 0 0 65 0 65 65 0 65 0 0 -65z m270 0 l0 -65 -60 0 -60 0 0 65 0 65 60 0
60 0 0 -65z m278 -2 l4 -63 -66 0 -66 0 0 65 0 66 63 -3 62 -3 3 -62z m272 1
l0 -64 -65 0 -65 0 0 65 0 66 65 -2 65 -2 0 -63z m270 1 l0 -65 -59 0 -59 0
-4 61 c-1 33 -1 63 1 65 2 2 31 4 63 4 l58 0 0 -65z m272 0 l3 -65 -62 0 -63
0 0 65 0 65 59 0 59 0 4 -65z m278 0 l0 -65 -65 0 -65 0 0 65 0 65 65 0 65 0
0 -65z m138 -3 l4 -63 -64 3 -63 3 -3 60 -3 60 63 0 63 0 3 -63z m270 1 l3
-63 -66 0 -65 0 0 65 0 66 63 -3 62 -3 3 -62z m272 2 l0 -65 -65 0 -65 0 0 65
0 65 65 0 65 0 0 -65z m274 49 c3 -9 6 -38 6 -65 l0 -49 -65 0 -65 0 0 65 0
65 59 0 c44 0 60 -4 65 -16z m276 -49 l0 -65 -65 0 -65 0 0 65 0 65 65 0 65 0
0 -65z m340 -2 l0 -63 -65 0 -65 0 0 58 c0 32 2 61 5 64 3 3 33 5 65 5 l60 -1
0 -63z m270 2 l0 -65 -60 0 -60 0 0 65 0 65 60 0 60 0 0 -65z m270 0 l0 -65
-60 0 -60 0 0 65 0 65 60 0 60 0 0 -65z m280 0 l0 -65 -65 0 -65 0 0 65 0 65
65 0 65 0 0 -65z m270 0 l0 -65 -63 0 -64 0 -2 55 c-1 30 1 60 4 65 3 6 33 10
66 10 l59 0 0 -65z m272 -2 l3 -63 -62 0 -61 0 -4 58 c-2 31 -2 61 0 65 2 4
30 7 62 6 l58 -2 4 -64z m276 0 l3 -63 -66 0 -65 0 0 65 0 66 63 -3 62 -3 3
-62z m-9828 -138 l0 -65 -65 0 -65 0 0 65 0 65 65 0 65 0 0 -65z m270 1 l0
-64 -62 2 -63 1 -3 63 -4 62 66 0 66 0 0 -64z m271 37 c4 -64 8 -95 13 -101 4
-3 33 -8 66 -10 l60 -4 0 -63 0 -63 -42 2 c-96 5 -88 -1 -88 71 l0 65 -65 0
-65 0 0 34 c0 18 -3 48 -6 65 l-6 31 66 0 c65 0 66 0 67 -27z m279 -38 l0 -65
-65 0 -65 0 0 65 0 65 65 0 65 0 0 -65z m270 0 l0 -65 -65 0 -65 0 0 65 0 65
65 0 65 0 0 -65z m270 0 l0 -65 -65 0 -65 0 0 65 0 65 65 0 65 0 0 -65z m280
0 l0 -65 -65 0 -65 0 0 65 0 65 65 0 65 0 0 -65z m270 0 l0 -66 -62 3 -63 3
-3 63 -4 62 66 0 66 0 0 -65z m270 0 l0 -66 -62 3 -63 3 -3 63 -3 62 66 0 65
0 0 -65z m280 0 l0 -65 -65 0 -65 0 0 65 0 65 65 0 65 0 0 -65z m270 0 l0 -65
-65 0 -65 0 0 65 0 65 65 0 65 0 0 -65z m270 0 l0 -65 -65 0 -65 0 0 65 0 65
65 0 65 0 0 -65z m270 0 l0 -65 -60 0 -60 0 0 65 0 65 60 0 60 0 0 -65z m210
0 l0 -65 -30 0 -30 0 0 65 0 65 30 0 30 0 0 -65z m270 0 l0 -66 -62 3 -62 3
-3 63 -3 62 65 0 65 0 0 -65z m280 0 l0 -65 -65 0 -65 0 0 65 0 65 65 0 65 0
0 -65z m270 -1 l0 -65 -62 3 -63 3 -3 63 -3 62 66 0 65 0 0 -66z m270 1 l0
-65 -65 0 -65 0 0 65 0 65 65 0 65 0 0 -65z m282 -2 l3 -68 63 -3 62 -3 0 -59
0 -60 -65 0 -65 0 0 65 0 65 -65 0 -65 0 0 65 0 65 65 0 64 0 3 -67z m268 2
l0 -65 -65 0 -65 0 0 65 0 65 65 0 65 0 0 -65z m270 0 l0 -65 -65 0 -65 0 0
65 0 65 65 0 65 0 0 -65z m276 -3 l2 -63 -66 3 -65 3 -3 63 -2 63 66 -3 66 -3
2 -63z m274 3 l0 -65 -65 0 -65 0 0 65 0 65 65 0 65 0 0 -65z m270 0 l0 -65
-65 0 -65 0 0 65 0 65 65 0 65 0 0 -65z m270 0 l0 -65 -65 0 -65 0 0 65 0 65
65 0 65 0 0 -65z m410 2 l0 -64 -60 -2 -60 -2 0 50 c0 27 -3 56 -6 65 -5 14 4
16 60 16 l66 0 0 -63z m272 -2 l-4 -65 -59 0 -59 0 0 65 0 65 63 0 62 0 -3
-65z m278 0 l0 -65 -65 0 -65 0 0 65 0 65 65 0 65 0 0 -65z m274 18 c-1 -27
-3 -56 -3 -66 -1 -16 -9 -18 -63 -15 l-63 3 -1 63 -1 62 66 0 67 0 -2 -47z
m342 15 c-2 -18 -4 -48 -5 -65 l-1 -33 -95 0 -95 0 0 65 0 65 99 0 99 0 -2
-32z m274 -33 l0 -65 -65 0 -65 0 0 65 0 65 65 0 65 0 0 -65z m270 0 l0 -65
-65 0 -65 0 0 65 0 65 65 0 65 0 0 -65z m270 0 l0 -65 -65 0 -65 0 0 65 0 65
65 0 65 0 0 -65z m280 0 l0 -65 -65 0 -65 0 0 65 0 65 65 0 65 0 0 -65z m270
0 l0 -65 -65 0 -65 0 0 65 0 65 65 0 65 0 0 -65z m270 0 l0 -65 -65 0 -65 0 0
65 0 65 65 0 65 0 0 -65z m-9826 -128 c-2 -23 -3 -50 -3 -59 -1 -13 -7 -17
-23 -14 -13 3 -40 5 -60 5 l-38 1 0 60 0 59 58 3 c31 2 60 0 63 -5 3 -4 4 -26
3 -50z m266 -7 l0 -58 -60 -4 -60 -3 0 65 0 65 60 -3 60 -4 0 -58z m3760 0 c0
-53 -2 -59 -22 -62 -22 -3 -23 -6 -20 -113 1 -60 0 -133 -3 -160 l-6 -50 -44
3 -45 4 0 -46 0 -46 -65 0 -64 0 3 35 c1 19 0 35 -4 35 -13 0 -80 -52 -90 -70
-10 -19 -8 -20 35 -16 l45 5 0 -42 c0 -23 3 -52 6 -64 6 -22 4 -23 -60 -23
-62 0 -66 1 -67 23 l0 22 -10 -23 c-5 -14 -8 -168 -6 -363 l2 -339 -27 0 c-26
0 -28 3 -28 40 l0 40 -75 0 -75 0 0 -40 0 -40 -60 0 -60 0 0 40 c0 36 -2 40
-26 40 -20 0 -25 4 -22 23 3 20 -2 22 -44 25 l-48 3 0 64 0 64 48 3 47 3 0 70
0 70 -47 3 -48 3 0 60 0 59 44 0 44 0 7 45 c3 26 3 59 0 75 -6 28 -10 30 -51
30 l-44 0 0 65 0 65 49 0 49 0 -1 68 -2 67 -47 3 -48 3 0 64 0 64 48 3 47 3 0
70 0 70 -47 3 -48 3 0 60 0 59 65 0 65 0 0 -40 0 -40 70 0 70 0 0 40 0 40 70
0 70 0 0 -40 c0 -33 3 -40 20 -40 15 0 20 -7 20 -25 0 -14 5 -25 11 -25 8 0
10 -15 7 -44 l-5 -44 36 37 c20 20 47 44 61 54 14 9 18 15 10 12 -8 -2 -32 -6
-52 -8 l-38 -5 0 64 0 64 65 0 66 0 -7 -52 -7 -51 34 8 c19 4 52 10 74 14 38
6 40 8 43 46 l3 40 64 -3 65 -4 0 -58z m1640 -1 l0 -59 -55 0 c-30 0 -55 -3
-55 -6 0 -4 9 -38 20 -75 19 -64 23 -69 49 -69 21 0 30 -6 35 -22 10 -40 7
-106 -6 -110 -10 -4 -9 -16 4 -54 l17 -49 -2 48 -2 47 62 0 63 0 0 -65 0 -65
-59 0 -60 0 23 -67 c20 -59 26 -68 49 -71 23 -3 27 2 43 55 9 32 28 89 41 126
29 87 29 97 -2 97 -24 0 -25 2 -25 65 l0 65 49 0 49 0 32 95 33 94 56 3 c36 2
56 8 57 16 1 6 2 24 3 40 1 27 2 27 60 24 l60 -4 3 -36 c3 -31 7 -38 31 -42
16 -3 33 -15 40 -30 10 -19 20 -24 41 -23 l29 2 -5 -82 c-3 -45 -1 -91 3 -102
7 -16 8 -13 6 13 l-4 32 64 0 63 0 0 -65 0 -65 -54 0 -55 0 21 -62 c26 -78 36
-91 65 -85 21 4 23 1 24 -37 0 -22 2 -49 4 -59 2 -13 -1 -17 -11 -13 -17 7
-17 -2 -3 -60 l12 -46 33 99 c41 121 42 137 10 131 -24 -5 -25 -3 -28 58 l-3
63 50 3 49 3 43 135 c24 74 43 138 43 143 0 4 -11 7 -25 7 -24 0 -25 3 -25 60
l0 60 65 0 65 0 0 -40 0 -40 140 0 140 0 0 40 0 40 65 0 65 0 0 -60 0 -60 -55
0 c-62 0 -69 -8 -79 -91 -2 -23 -9 -45 -15 -48 -11 -7 -101 -253 -101 -275 0
-12 17 -14 78 -8 26 3 46 94 43 195 l-2 77 42 0 c61 0 99 37 99 96 l0 43 63 3
62 3 3 63 3 62 64 0 65 0 0 -30 0 -31 63 6 c81 9 87 11 87 35 0 18 6 20 65 20
65 0 65 0 65 -28 0 -25 5 -29 48 -39 26 -6 57 -14 70 -18 21 -7 22 -4 22 39
l0 46 65 0 65 0 0 -60 c0 -58 -1 -60 -26 -60 -14 0 -35 5 -47 11 -27 14 -15 2
35 -34 44 -32 48 -33 48 -7 0 18 7 20 75 20 41 0 75 4 75 9 0 5 -4 21 -10 35
-9 25 -8 26 25 26 32 0 35 2 35 30 l0 30 65 0 65 0 0 -30 0 -30 75 0 75 0 0
30 0 30 60 0 60 0 0 -56 c0 -40 -5 -60 -16 -68 -14 -11 -13 -17 9 -66 l24 -55
-5 58 -4 57 66 0 66 0 0 -65 0 -65 -60 0 c-33 0 -60 -2 -60 -4 0 -3 15 -38 34
-79 33 -74 56 -102 64 -79 10 30 23 7 22 -35 -3 -93 -5 -90 47 -86 27 2 51 7
54 11 10 10 109 250 109 262 0 5 -16 10 -35 10 l-35 0 0 66 0 66 65 -4 c76 -4
80 2 76 87 l-2 50 66 -3 c64 -4 65 -4 65 -33 l0 -29 70 0 c70 0 71 0 77 30 5
29 7 30 63 30 l57 0 6 -42 c5 -34 -1 -55 -28 -112 -52 -113 -53 -116 -11 -116
l36 0 0 -65 0 -65 -65 0 -65 0 0 -64 c0 -62 -1 -65 -26 -68 -21 -2 -31 -15
-55 -71 -16 -38 -29 -71 -29 -73 0 -2 25 -4 55 -4 l55 0 0 -65 0 -65 -65 0
-65 0 0 38 -1 37 -19 -35 c-23 -43 -24 -50 -5 -50 12 0 15 -13 15 -60 l0 -60
-39 0 -39 0 -31 -74 c-24 -58 -31 -90 -31 -140 0 -59 -2 -66 -20 -66 -17 0
-18 3 -10 26 16 42 11 42 -11 -1 -19 -38 -69 -155 -69 -162 0 -2 25 -3 55 -3
l55 0 0 -65 0 -65 -65 0 -65 0 -1 43 0 42 -19 -40 c-23 -50 -24 -55 -5 -55 12
0 15 -14 15 -65 l0 -65 -41 4 c-38 4 -41 2 -57 -30 -8 -19 -19 -34 -24 -34 -4
0 -8 -16 -8 -35 l0 -35 -65 0 -65 0 0 35 0 35 -70 0 -70 0 0 -35 0 -35 -65 0
-65 0 0 65 c0 57 2 65 19 65 13 0 26 17 45 61 14 33 26 65 26 70 0 5 -20 9
-45 9 l-45 0 0 65 0 66 63 -3 c54 -3 62 -5 59 -22 -2 -11 1 -15 8 -11 6 4 10
19 9 33 -1 15 -1 53 -1 85 l2 57 32 -2 c29 -3 34 1 51 35 15 32 16 44 7 73
-11 31 -15 34 -51 34 l-39 0 0 66 c0 41 4 63 10 59 15 -9 12 12 -5 45 -19 38
-23 38 -17 0 l4 -30 -66 0 -66 0 0 60 0 60 50 0 c28 0 50 4 50 9 0 18 -88 203
-92 194 -3 -4 -3 -2 -1 5 1 7 -3 27 -11 45 -12 31 -16 32 -74 35 l-62 3 0 -29
c0 -16 3 -50 6 -76 l7 -46 58 0 59 0 0 -66 0 -66 -62 4 -63 3 0 -70 0 -70 63
-3 62 -3 0 -64 0 -65 -65 0 -66 0 3 -72 3 -73 62 0 63 0 0 -63 0 -63 -62 3
c-47 2 -63 7 -64 18 -1 8 -2 25 -3 38 -1 21 -5 22 -76 22 -72 0 -76 -1 -74
-22 5 -56 3 -58 -61 -58 l-60 0 0 40 c0 37 -2 40 -29 40 -26 0 -29 4 -35 40
l-6 40 -38 -24 c-36 -22 -37 -25 -37 -80 l0 -56 -67 0 c-38 0 -68 3 -68 6 0 3
5 14 10 24 15 28 -1 33 -105 31 -94 -2 -187 19 -243 55 -14 9 -47 15 -78 15
-30 0 -55 3 -55 7 -1 4 -2 24 -3 44 -3 55 -38 88 -94 88 l-45 0 5 80 c3 45 1
83 -4 86 -4 3 -8 -2 -8 -10 0 -13 -13 -16 -65 -16 l-66 0 3 62 3 61 55 1 55 1
-3 45 c-6 97 -8 100 -63 100 -33 0 -48 4 -44 11 4 5 4 22 0 37 l-7 27 -13 -35
c-18 -46 -18 -50 0 -50 13 0 15 -11 13 -62 l-3 -63 -34 0 c-33 0 -35 -2 -58
-69 -12 -39 -23 -72 -23 -75 0 -4 25 -4 55 -3 49 3 55 2 55 -16 0 -10 3 -40 6
-66 l7 -46 -67 0 -66 0 -1 43 -1 42 -13 -31 c-23 -51 -29 -84 -15 -84 6 0 8 5
5 10 -3 6 -1 10 4 10 7 0 11 -26 11 -65 l0 -65 -35 0 c-29 0 -37 -5 -45 -25
-7 -18 -17 -25 -35 -25 -23 0 -25 -4 -25 -40 l0 -40 -59 0 -60 0 -3 38 -3 37
-75 3 -76 3 4 -41 4 -40 -66 0 -66 0 0 66 0 67 45 -5 c52 -6 52 -6 26 77 -16
51 -22 60 -45 63 -25 3 -26 5 -26 74 l0 70 -65 -4 -65 -3 0 64 0 63 45 -4 c25
-2 45 1 45 6 0 6 -15 54 -32 109 l-33 98 -17 -48 c-9 -26 -17 -69 -17 -95 -1
-35 -6 -50 -19 -57 -10 -5 -23 -31 -30 -58 -6 -26 -14 -57 -17 -69 -6 -18 -3
-20 29 -16 l36 4 0 -66 0 -66 -55 0 -54 0 -16 -57 c-36 -127 -36 -128 -99
-131 l-56 -3 0 -39 0 -40 -60 0 -60 0 0 40 0 40 -54 0 -54 0 -16 43 c-9 23
-24 67 -34 97 l-19 54 -51 -3 -52 -2 0 66 0 66 30 -5 c17 -2 30 -1 30 2 -1 4
-23 70 -49 147 l-48 139 -47 -3 -46 -3 0 66 c0 64 1 66 26 66 17 0 25 5 22 13
-3 6 -25 69 -49 140 l-44 127 -47 0 -48 0 0 60 c0 60 4 65 38 61 10 -2 12 6 7
28 -6 30 -6 30 42 33 48 3 48 3 51 41 l3 37 59 0 59 0 3 -37 3 -38 73 -3 72
-3 0 43 0 43 65 -3 65 -4 0 -59z m4028 -5 l-3 -59 -65 1 -65 1 -3 61 -4 61 64
3 c35 2 67 0 71 -3 5 -4 7 -33 5 -65z m-9148 7 c0 -33 -3 -61 -7 -64 -5 -2
-34 -1 -65 1 l-58 4 0 59 0 59 65 0 65 0 0 -59z m540 23 c0 -35 1 -36 33 -31
17 3 51 9 75 12 36 6 42 10 42 31 0 23 3 24 65 24 l65 0 0 -32 c0 -32 2 -34
75 -57 41 -13 104 -43 140 -67 l65 -44 0 35 0 35 65 -1 65 -1 0 -64 0 -64 -40
0 -41 0 36 -52 c19 -29 35 -58 35 -65 0 -7 5 -13 10 -13 6 0 10 27 10 60 l0
60 63 0 62 0 -2 -57 c-1 -32 -2 -61 -2 -65 -1 -5 -29 -8 -63 -8 l-63 0 -3 -67
c-2 -38 -5 -69 -7 -71 -1 -2 -30 0 -64 4 -50 5 -61 10 -61 25 0 24 -12 24 -96
-4 -38 -13 -85 -22 -104 -21 -19 1 -43 3 -52 3 -15 1 -18 10 -18 51 0 41 -4
52 -22 64 -29 18 -164 31 -173 17 -4 -7 4 -11 19 -11 25 0 26 -2 26 -66 l0
-66 -62 4 -63 4 2 47 c2 26 -1 47 -5 47 -17 0 -82 -82 -82 -104 0 -2 16 -4 36
-3 l35 2 2 -63 2 -62 -54 0 -53 0 7 -47 c11 -78 24 -98 68 -101 l38 -3 -2 -47
c-3 -43 -1 -48 28 -65 40 -23 162 -35 189 -18 16 10 11 11 -28 7 l-48 -6 0 65
0 65 64 0 65 0 -3 -50 c-3 -34 0 -50 8 -50 14 0 69 56 85 87 11 21 9 22 -36
25 l-48 3 -3 63 -3 62 66 0 65 0 0 -64 c0 -72 4 -76 91 -76 37 0 48 -4 51 -18
4 -13 21 -23 54 -31 27 -7 57 -14 67 -17 14 -4 17 1 17 30 l0 36 56 0 57 0 -7
53 c-3 28 -6 62 -6 75 0 19 -5 22 -45 22 l-45 0 -2 45 c-1 25 -2 53 -2 63 -1
14 10 18 53 22 l53 5 17 55 c46 147 168 288 310 358 46 23 90 42 97 42 10 0
14 13 14 40 l0 40 65 0 c63 0 65 -1 65 -25 0 -24 3 -25 60 -26 33 -1 66 -2 73
-3 7 -1 11 10 10 27 -2 27 -2 27 62 27 l65 0 0 -43 c0 -43 0 -44 59 -71 34
-17 64 -25 71 -21 8 5 11 4 7 -2 -4 -6 22 -35 58 -67 60 -53 107 -111 140
-177 12 -22 22 -29 45 -29 30 0 30 0 30 -58 0 -32 -4 -62 -8 -67 -5 -6 -4 -63
1 -128 8 -86 7 -123 -1 -140 -11 -19 -52 -135 -52 -144 0 -1 14 -3 30 -3 l30
0 0 -65 0 -65 -66 0 c-49 0 -63 3 -58 13 5 8 2 7 -9 -2 -11 -8 -14 -18 -9 -25
5 -6 10 -37 11 -68 l2 -58 -65 0 c-52 0 -66 3 -66 15 0 20 -10 19 -40 -5 l-25
-20 28 0 c26 0 27 -1 27 -60 l0 -60 -65 0 -65 0 0 45 c0 25 -3 45 -6 45 -3 0
-24 -4 -47 -9 -23 -6 -54 -12 -68 -15 -23 -5 -26 -10 -23 -36 l4 -30 -65 0
c-65 0 -65 0 -65 29 0 26 -4 29 -42 34 -24 4 -58 9 -75 13 -33 6 -33 6 -33
-35 l0 -41 -66 0 -66 0 4 65 3 65 -67 0 -68 0 0 52 c0 70 -17 88 -86 88 l-54
0 6 58 c2 31 7 64 9 72 2 8 -3 26 -11 40 l-14 25 2 -25 c3 -24 1 -25 -60 -28
-72 -3 -80 -13 -76 -94 3 -48 3 -48 -29 -48 -44 0 -107 -62 -107 -105 0 -29
-1 -30 -48 -31 -77 -1 -92 -15 -92 -80 l0 -55 -62 3 c-63 3 -63 3 -63 33 -1
22 -5 30 -18 29 -9 0 -42 -1 -72 -2 -54 -2 -55 -3 -55 -32 l0 -30 -65 0 -65 0
0 35 c0 25 -5 37 -17 41 -101 33 -186 78 -241 127 l-22 20 0 -46 0 -47 -65 0
-65 0 0 65 0 65 45 0 46 0 -29 43 c-40 58 -66 112 -88 180 l-18 57 -42 0 -42
0 -4 65 -3 65 37 0 c20 0 39 3 42 8 2 4 6 37 7 72 l2 65 -41 -1 -42 -1 0 64 0
63 65 0 65 0 1 58 c1 31 1 63 0 70 -1 8 12 12 36 12 52 0 103 51 103 104 l0
36 51 0 c77 0 89 10 89 75 l0 55 60 0 60 0 0 -36z m550 -24 l0 -60 -46 0 c-70
0 -84 12 -84 70 l0 50 65 0 65 0 0 -60z m280 -5 l0 -65 65 0 65 0 0 -53 c0
-29 -5 -58 -12 -65 -7 -7 -36 -12 -65 -12 l-53 0 0 65 c0 51 -3 65 -15 66 -8
1 -19 3 -25 4 -5 1 -30 3 -54 4 l-43 1 -2 60 -2 60 71 0 70 0 0 -65z m264 27
c-4 -90 2 -82 -64 -82 l-60 0 0 60 0 60 63 0 62 0 -1 -38z m824 -23 l-4 -61
-49 -2 c-73 -4 -75 -2 -75 65 l0 59 66 0 66 0 -4 -61z m1294 1 l3 -60 -57 0
c-32 0 -61 -1 -65 -2 -5 -2 -9 25 -11 60 l-3 62 64 0 65 0 4 -60z m276 35 c-5
-24 -4 -25 53 -25 31 0 64 -3 73 -6 13 -5 16 1 16 25 l0 31 65 0 65 0 0 -45
c0 -43 1 -45 49 -69 27 -14 51 -22 55 -19 3 4 6 1 6 -6 0 -7 5 -9 10 -6 6 4 9
3 8 -2 -4 -12 116 -123 131 -123 7 0 10 -4 6 -10 -3 -5 8 -36 25 -69 29 -58
31 -60 72 -63 l43 -3 0 -59 c0 -55 -2 -59 -24 -63 -14 -2 -25 -4 -26 -6 -1 -1
1 -31 4 -67 5 -58 8 -65 29 -68 21 -3 23 -7 20 -65 l-3 -62 -54 -3 c-30 -2
-59 2 -64 7 -14 14 -147 14 -147 1 0 -6 -28 -10 -64 -10 -36 0 -68 5 -71 10
-8 14 -128 13 -142 -1 -7 -7 -31 -9 -65 -5 -140 16 -200 18 -211 7 -6 -6 -21
-11 -34 -11 -30 0 -29 -11 3 -59 38 -58 50 -58 46 0 l-4 49 60 0 c57 0 60 -1
65 -26 2 -15 3 -43 0 -63 -5 -36 -6 -36 -47 -33 -30 3 -38 1 -30 -7 16 -18 84
-26 84 -11 0 9 22 11 82 9 59 -3 82 -1 85 9 3 7 -1 10 -11 6 -14 -5 -16 3 -16
55 l0 61 64 0 c62 0 65 -1 68 -26 2 -21 15 -31 68 -54 l65 -29 6 47 c3 26 4
50 2 55 -2 4 25 7 61 7 l66 0 0 -64 0 -64 -47 4 -48 4 50 -25 c49 -24 50 -24
53 -5 3 18 11 20 68 20 l64 0 0 -65 0 -65 -65 0 c-61 0 -65 2 -65 23 l-1 22
-20 -25 c-19 -22 -19 -25 -5 -28 13 -3 16 -16 16 -67 l0 -63 -66 -1 c-61 -1
-66 1 -61 19 5 20 5 20 -24 -1 -33 -23 -34 -25 -17 -35 7 -5 8 -3 3 6 -5 8 -3
11 6 8 16 -5 27 -39 28 -90 l1 -38 -65 0 -65 0 0 45 c0 48 -2 50 -46 36 -16
-5 -46 -12 -66 -16 -34 -5 -38 -9 -38 -35 l0 -30 -65 0 c-65 0 -66 0 -63 27 3
25 0 27 -57 39 -86 19 -85 19 -85 -26 l0 -40 -65 0 -65 0 0 66 c0 49 3 63 13
58 7 -4 8 -3 4 2 -5 5 -39 7 -78 5 l-69 -3 0 52 c0 38 3 49 13 44 6 -4 1 5
-12 19 -21 23 -32 27 -83 27 l-58 0 0 65 c0 57 2 65 19 65 19 0 18 2 -2 63
l-22 62 -3 -57 -3 -58 -64 0 -65 0 0 63 0 64 67 -5 66 -4 -6 53 c-4 30 -7 64
-7 77 0 20 -4 22 -60 22 l-60 0 0 65 0 65 64 0 c70 0 68 -2 81 72 5 34 43 110
89 181 l18 27 -56 0 -56 0 0 65 0 65 65 0 65 0 0 -56 0 -56 53 48 c47 42 154
103 207 117 15 4 20 13 20 41 l0 36 66 0 c65 0 66 0 62 -25z m1362 -35 l0 -60
-65 0 -65 0 0 60 0 60 65 0 65 0 0 -60z m540 -2 l0 -63 -60 0 -60 0 0 63 0 62
60 0 60 0 0 -62z m2390 2 l0 -60 -60 0 -60 0 0 60 0 60 60 0 60 0 0 -60z
m1100 2 c0 -32 -2 -61 -4 -63 -2 -2 -32 -2 -65 -1 l-61 4 0 59 0 59 65 0 65 0
0 -58z m-9830 -137 l0 -65 -65 0 -65 0 0 65 0 65 65 0 65 0 0 -65z m270 0 l0
-65 -65 0 -65 0 0 65 0 65 65 0 65 0 0 -65z m270 0 l0 -65 -59 0 -59 0 -4 61
c-1 33 -1 63 1 65 2 2 31 4 63 4 l58 0 0 -65z m2460 -1 l0 -64 -65 0 -65 0 0
65 0 65 65 -1 65 -1 0 -64z m2662 1 l3 -65 -65 0 -65 0 0 65 -1 65 62 0 62 0
4 -65z m818 0 l0 -65 -66 0 -65 0 2 58 c1 31 4 60 6 65 2 4 31 7 64 7 l59 0 0
-65z m2940 0 l0 -65 -65 0 -65 0 0 65 0 65 65 0 65 0 0 -65z m270 0 l0 -65
-65 0 -65 0 0 65 0 65 65 0 65 0 0 -65z m270 0 l0 -65 -62 0 -63 0 0 65 0 65
63 0 62 0 0 -65z m-10100 -140 l0 -65 -60 0 -60 0 0 65 0 65 60 0 60 0 0 -65z
m272 0 l-4 -65 -59 0 -59 0 0 65 0 65 63 0 62 0 -3 -65z m278 0 l0 -65 -65 0
-65 0 0 65 0 65 65 0 65 0 0 -65z m8320 0 l0 -65 -60 0 -60 0 0 65 0 65 60 0
60 0 0 -65z m821 61 c2 -2 2 -32 1 -65 l-4 -61 -59 0 -59 0 -1 45 c-1 25 -2
51 -3 58 -1 6 -1 15 1 20 4 7 116 10 124 3z m279 -61 l0 -65 -65 0 -65 0 0 65
0 65 65 0 65 0 0 -65z m-5943 -37 c-3 -8 -6 -5 -6 6 -1 11 2 17 5 13 3 -3 4
-12 1 -19z m-3617 -104 l0 -64 -62 2 -63 3 -3 59 c-2 33 1 62 6 65 6 3 35 4
66 3 l56 -4 0 -64z m-270 1 l0 -66 -62 3 -63 3 -3 63 -3 62 66 0 65 0 0 -65z
m9419 0 l2 -65 -66 0 -65 0 0 65 0 65 64 0 63 0 2 -65z m271 0 l0 -66 -62 3
-63 3 -3 63 -3 62 66 0 65 0 0 -65z m270 0 l0 -65 -60 0 c-55 0 -60 2 -61 23
0 12 -2 41 -4 65 l-3 42 64 0 64 0 0 -65z m-10099 -69 c2 -2 2 -32 1 -65 l-4
-61 -59 0 -59 0 0 65 0 65 58 0 c32 0 61 -2 63 -4z m269 -61 l0 -65 -60 0 -60
0 0 65 0 65 60 0 60 0 0 -65z m264 59 c12 -5 16 -21 16 -65 l0 -59 -65 0 -65
0 0 65 0 65 49 0 c27 0 56 -3 65 -6z m834 -61 l4 -63 -66 0 -66 0 0 65 0 66
62 -3 62 -3 4 -62z m272 2 l0 -65 -65 0 -65 0 0 65 0 65 65 0 65 0 0 -65z
m7780 0 l0 -65 -59 0 -59 0 -4 61 c-1 33 -1 63 1 65 2 2 31 4 63 4 l58 0 0
-65z m270 -1 l0 -64 -63 0 -64 0 -2 56 c-1 30 1 59 3 63 3 5 33 8 66 9 l60 0
0 -64z m280 1 l0 -65 -65 0 -65 0 0 65 0 65 65 0 65 0 0 -65z m-9830 -140 l0
-65 -65 0 -65 0 0 65 0 65 65 0 65 0 0 -65z m270 0 l0 -65 -65 0 -65 0 0 65 0
65 65 0 65 0 0 -65z m820 0 l0 -65 -59 0 c-58 0 -59 1 -65 31 -3 17 -6 47 -6
65 l0 34 65 0 65 0 0 -65z m550 0 l0 -65 -65 0 -65 0 0 65 0 65 65 0 65 0 0
-65z m2110 0 l0 -65 -65 0 -65 0 0 65 0 65 65 0 65 0 0 -65z m5670 0 l0 -65
-65 0 -65 0 0 65 0 65 65 0 65 0 0 -65z m270 0 l0 -65 -65 0 -65 0 0 65 0 65
65 0 65 0 0 -65z m270 0 l0 -65 -60 0 -60 0 0 65 0 65 60 0 60 0 0 -65z
m-9552 -132 l3 -63 -66 0 -65 0 0 66 0 65 63 -3 62 -3 3 -62z m3209 -3 l-2
-60 -62 0 -63 0 0 60 0 59 58 3 c31 2 60 2 64 0 4 -2 7 -30 5 -62z m5937 40
c-1 -14 -2 -42 -3 -62 l-1 -38 -62 0 -63 0 1 58 c1 31 2 59 3 63 0 3 29 5 64
5 60 -1 62 -2 61 -26z m229 21 l47 -1 0 -66 0 -65 -62 4 -63 5 -3 65 c-3 58
-1 65 15 62 10 -2 39 -4 66 -4z m-9918 -61 l0 -60 -62 0 -63 0 0 60 0 60 63 0
62 0 0 -60z m270 0 l0 -60 -62 0 -63 0 0 60 0 60 63 0 62 0 0 -60z m5117 0 l3
-60 -62 0 -63 0 0 60 0 60 59 0 59 0 4 -60z m4028 0 l0 -60 -65 0 -64 0 1 60
2 60 63 0 63 0 0 -60z m-9280 -135 l0 -65 -65 0 -65 0 0 65 0 65 65 0 65 0 0
-65z m270 0 l0 -65 -65 0 -65 0 0 65 0 65 65 0 65 0 0 -65z m272 8 c2 -32 3
-61 1 -65 -3 -5 -31 -8 -63 -8 -57 0 -59 1 -65 31 -4 17 -4 46 -1 65 l7 34 59
0 58 0 4 -57z m3208 -8 l0 -65 -65 0 -65 0 0 65 0 65 65 0 65 0 0 -65z m5400
-70 l0 -135 -65 2 -65 2 0 133 0 133 65 0 65 0 0 -135z m270 0 l0 -135 -65 0
-65 0 0 135 0 135 65 0 65 0 0 -135z m270 70 l0 -65 -65 0 -65 0 0 65 0 65 65
0 65 0 0 -65z m-9822 -142 l3 -63 -66 0 -65 0 0 65 0 66 63 -3 62 -3 3 -62z
m266 5 l-2 -63 -61 -3 -61 -3 0 66 0 65 63 0 62 0 -1 -62z m276 -3 l0 -65 -65
0 -65 0 0 65 0 65 65 0 65 0 0 -65z m1368 3 l-3 -63 -65 0 -65 0 -3 63 -3 62
71 0 71 0 -3 -62z m1834 20 c0 -24 1 -52 2 -63 1 -18 -6 -20 -62 -23 l-62 -3
0 66 0 65 60 0 60 0 2 -42z m278 -23 l0 -65 -65 0 -65 0 0 65 0 65 65 0 65 0
0 -65z m1360 0 l0 -65 -60 0 -60 0 0 65 0 65 60 0 60 0 0 -65z m820 0 l0 -65
-60 0 -60 0 0 65 0 65 60 0 60 0 0 -65z m826 3 l-1 -63 -67 -3 -68 -3 0 66 0
65 69 0 69 0 -2 -62z m1434 -3 l0 -65 -65 0 -65 0 0 65 0 65 65 0 65 0 0 -65z
m1630 0 l0 -66 -62 3 -63 3 -3 63 -3 62 66 0 65 0 0 -65z m-9960 -130 l0 -65
-65 0 -65 0 0 58 c0 32 3 62 7 65 3 4 33 7 65 7 l58 0 0 -65z m263 55 c4 0 7
-27 7 -60 l0 -60 -64 0 -63 0 -2 56 c0 31 2 60 5 66 4 6 28 8 58 4 28 -3 54
-6 59 -6z m277 -55 l0 -66 -62 3 -63 3 0 55 c-1 30 1 58 3 63 2 4 30 7 63 7
l59 0 0 -65z m270 50 c5 -3 10 -31 10 -61 l0 -54 -65 0 -65 0 0 64 0 64 55 -3
c30 -2 59 -6 65 -10z m828 -53 l3 -62 -66 0 -65 0 0 58 c0 32 2 61 5 64 3 2
31 4 62 3 l58 -1 3 -62z m272 1 l0 -63 -65 0 -65 0 0 63 0 62 65 0 65 0 0 -62z
m1088 0 l3 -63 -66 0 -65 0 0 58 c0 32 3 62 7 66 4 4 32 6 63 4 l55 -3 3 -62z
m752 2 l0 -65 -65 0 -65 0 1 65 1 65 64 0 64 0 0 -65z m278 -2 l3 -63 -66 0
-65 0 0 63 0 64 63 -1 62 -1 3 -62z m1090 -2 l3 -61 -66 0 -65 0 0 63 0 62 62
-2 63 -1 3 -61z m230 60 l42 -1 0 -60 0 -60 -65 0 -65 0 0 65 c0 62 1 65 23
61 12 -3 41 -5 65 -5z m590 -59 l3 -62 -66 0 -65 0 0 66 0 66 63 -4 62 -4 3
-62z m820 0 l3 -62 -66 0 -65 0 0 65 0 64 63 -3 62 -3 3 -61z m222 58 l49 0 0
-60 -1 -60 -64 0 -64 0 0 66 c0 56 2 65 16 60 9 -3 38 -6 64 -6z m2030 -57 l0
-63 -65 0 -65 0 0 63 0 62 65 0 65 0 0 -62z m270 2 l0 -65 -64 0 -65 0 3 43
c2 23 4 52 4 65 2 20 7 22 62 22 l60 0 0 -65z m266 52 c4 -4 6 -41 5 -79 l-1
-38 -60 0 c-50 0 -60 3 -61 18 -4 70 -5 98 -2 103 3 6 113 2 119 -4z m284 -57
l0 -60 -65 0 -65 0 0 60 0 60 65 0 65 0 0 -60z m-2549 -9 c-11 -7 -10 -11 7
-20 29 -15 37 -14 22 4 -8 9 -9 15 -2 15 6 0 14 -5 18 -11 5 -8 9 -8 14 1 10
17 30 3 30 -21 0 -17 -7 -19 -60 -19 -57 0 -60 1 -60 24 0 23 11 34 35 35 6 0
4 -3 -4 -8z m-7412 -126 l-2 -65 -63 0 -64 0 0 65 0 65 65 0 65 0 -1 -65z
m262 18 c0 -27 2 -56 4 -65 3 -16 -5 -18 -61 -18 l-64 0 0 65 0 65 60 0 60 0
1 -47z m279 -18 l0 -65 -65 0 -65 0 0 65 0 65 65 0 65 0 0 -65z m270 0 l0 -65
-65 0 -65 0 0 65 0 65 65 0 65 0 0 -65z m271 58 c0 -5 1 -33 2 -63 l2 -55 -62
-3 -63 -3 0 66 0 65 60 0 c33 0 60 -3 61 -7z m279 -58 l0 -65 -65 0 -65 0 0
65 0 65 65 0 65 0 0 -65z m270 0 l0 -65 -65 0 -65 0 0 65 0 65 65 0 65 0 0
-65z m278 -2 l3 -63 -70 0 -69 0 1 65 2 66 65 -3 65 -3 3 -62z m262 18 c0 -27
3 -56 6 -65 5 -14 -4 -16 -60 -16 l-66 0 0 65 0 65 60 0 60 0 0 -49z m280 -16
l0 -65 -65 0 -65 0 0 65 0 65 65 0 65 0 0 -65z m272 4 c1 -33 1 -63 -1 -65 -2
-2 -33 -4 -68 -4 l-63 0 0 65 0 65 64 0 64 0 4 -61z m277 -4 l-2 -65 -63 0
-64 0 0 65 0 65 65 0 65 0 -1 -65z m271 0 l0 -65 -65 0 -65 0 0 65 0 65 65 0
65 0 0 -65z m271 33 c0 -18 1 -48 2 -66 l2 -32 -67 0 -68 0 0 65 0 65 65 0 65
0 1 -32z m209 -33 l0 -65 -67 0 -68 0 0 65 0 65 68 0 67 0 0 -65z m270 0 l0
-65 -65 0 -65 0 0 65 0 65 65 0 65 0 0 -65z m271 28 c1 -21 2 -49 3 -63 1 -24
-1 -25 -61 -25 -35 0 -63 3 -63 8 0 4 0 32 0 62 l0 55 60 0 60 0 1 -37z m270
5 c1 -18 3 -48 5 -65 l4 -33 -65 0 -65 0 0 65 0 65 60 0 60 0 1 -32z m279 -33
l0 -65 -65 0 -65 0 0 65 0 65 65 0 65 0 0 -65z m270 0 l0 -65 -65 0 -65 0 0
65 0 65 65 0 65 0 0 -65z m272 0 l3 -65 -62 0 -63 0 0 65 0 65 59 0 59 0 4
-65z m278 0 l0 -65 -65 0 -65 0 0 65 0 65 65 0 65 0 0 -65z m270 0 l0 -65 -65
0 -65 0 0 65 0 65 65 0 65 0 0 -65z m272 4 c1 -33 1 -63 -1 -65 -2 -2 -31 -4
-63 -4 l-58 0 0 65 0 65 59 0 59 0 4 -61z m272 34 c3 -16 5 -45 5 -65 l-1 -38
-66 0 -67 0 0 65 0 65 62 0 c59 0 62 -1 67 -27z m276 -38 l0 -65 -65 0 -65 0
0 65 0 65 65 0 65 0 0 -65z m272 0 l3 -65 -66 0 -66 0 -2 65 -1 65 64 0 64 0
4 -65z m278 0 l0 -65 -67 0 -68 0 3 65 4 65 64 0 64 0 0 -65z m337 -2 l1 -63
-64 0 -64 0 0 65 0 66 63 -3 62 -3 2 -62z m273 2 l0 -65 -65 0 -65 0 0 65 0
65 65 0 65 0 0 -65z m274 33 c3 -18 4 -46 3 -63 -3 -30 -3 -30 -70 -33 l-67
-3 0 66 0 65 65 0 64 0 5 -32z m1096 -33 l0 -65 -65 0 -65 0 0 65 0 65 65 0
65 0 0 -65z m270 0 l0 -65 -65 0 -65 0 0 65 0 65 65 0 65 0 0 -65z m270 0 l0
-65 -65 0 -65 0 0 65 0 65 65 0 65 0 0 -65z m270 0 l0 -66 -62 3 -63 3 -3 63
-3 62 65 0 66 0 0 -65z m-9960 -134 l0 -59 -61 -4 c-33 -1 -63 -1 -65 1 -2 2
-4 31 -4 63 l0 58 65 0 65 0 0 -59z m270 -5 l0 -64 -62 2 -63 3 -3 61 -3 62
66 0 65 0 0 -64z m270 2 l0 -63 -60 3 -60 4 0 59 0 59 60 0 60 0 0 -62z m280
2 c0 -52 -3 -60 -19 -60 -10 0 -39 -3 -65 -6 l-46 -7 0 67 0 66 65 0 65 0 0
-60z m270 -2 l0 -63 -62 1 -63 1 -3 61 -3 62 66 0 65 0 0 -62z m270 -4 c0 -56
-2 -65 -16 -60 -9 3 -38 6 -65 6 l-49 0 0 60 0 60 65 0 65 0 0 -66z m280 6 c0
-33 -3 -60 -7 -61 -5 -1 -34 -3 -65 -4 l-58 -4 0 65 0 64 65 0 65 0 0 -60z
m270 1 l0 -59 -61 -4 c-33 -1 -63 -1 -65 1 -2 2 -4 31 -4 63 l0 58 65 0 65 0
0 -59z m270 -5 l0 -65 -62 2 -63 2 -3 63 -3 62 66 0 65 0 0 -64z m280 5 l0
-59 -65 -4 -65 -3 0 63 0 62 65 0 65 0 0 -59z m270 -1 c0 -33 -3 -60 -7 -60
-5 -1 -34 -3 -65 -5 l-58 -5 0 65 0 65 65 0 65 0 0 -60z m268 -2 l-3 -61 -37
0 c-97 3 -88 -4 -88 63 l0 60 65 0 66 0 -3 -62z m276 -1 l0 -62 -62 0 -62 0 0
63 0 62 63 0 62 0 -1 -63z m204 1 c-3 -60 -4 -63 -28 -63 -24 0 -25 3 -28 63
l-3 62 31 0 31 0 -3 -62z m272 7 c0 -30 -1 -58 -2 -62 -2 -5 -30 -8 -63 -7
l-60 0 -3 62 -4 62 66 0 66 0 0 -55z m280 -9 l0 -64 -62 1 -63 2 -3 63 -3 62
66 0 65 0 0 -64z m270 4 l0 -60 -45 -1 c-25 -1 -53 -2 -62 -3 -15 -1 -18 9
-21 62 l-3 62 66 0 65 0 0 -60z m270 1 c0 -33 -3 -61 -7 -64 -5 -2 -33 -1 -64
1 l-56 4 -2 59 -2 59 65 0 66 0 0 -59z m278 -3 l-3 -63 -62 -1 -63 0 0 63 0
63 65 0 66 0 -3 -62z m272 3 l0 -59 -61 -4 c-33 -1 -63 -1 -65 1 -2 2 -4 31
-4 63 l0 58 65 0 65 0 0 -59z m270 -4 l0 -63 -62 2 -63 3 -3 60 -3 61 66 0 65
0 0 -63z m270 8 c0 -30 -1 -58 -2 -62 -2 -5 -29 -8 -60 -8 l-58 0 0 63 0 62
60 0 60 0 0 -55z m280 -5 l0 -60 -65 0 -65 0 0 60 0 60 65 0 65 0 0 -60z m270
-5 l0 -65 68 0 68 0 1 -65 1 -65 -64 0 -64 0 0 60 c0 68 -1 69 -80 74 l-55 3
-3 62 -3 61 66 0 65 0 0 -65z m270 1 l0 -64 -37 2 c-21 2 -50 3 -65 4 -27 2
-28 4 -28 62 l0 60 65 0 65 0 0 -64z m280 4 c0 -59 -1 -60 -27 -61 -16 0 -45
-1 -65 -3 l-38 -3 0 64 0 63 65 0 65 0 0 -60z m270 2 c0 -32 -2 -61 -4 -63 -2
-2 -32 -2 -65 -1 l-61 4 0 59 0 59 65 0 65 0 0 -58z m340 -2 l0 -60 -65 0 -65
0 0 60 0 60 65 0 65 0 0 -60z m270 -3 l0 -63 -47 3 c-27 1 -55 2 -63 3 -11 0
-16 15 -18 60 l-3 60 65 0 66 0 0 -63z m276 1 c-1 -44 -5 -63 -13 -62 -7 1
-35 2 -63 3 l-50 1 0 60 0 60 64 0 64 0 -2 -62z m274 3 l0 -58 -37 -6 c-83
-12 -88 -9 -91 61 l-3 62 66 0 65 0 0 -59z m820 -5 l0 -64 -65 1 -65 2 0 63 0
62 65 0 65 0 0 -64z m270 1 l0 -63 -57 1 c-66 0 -71 5 -72 78 l-1 47 65 0 65
0 0 -63z m270 -1 l0 -64 -59 2 -59 1 -4 63 -3 62 63 0 62 0 0 -64z m278 3 l-3
-61 -63 -2 -62 -1 0 63 0 62 65 0 66 0 -3 -61z m-9968 -134 l0 -65 -60 0 -60
0 0 65 0 65 60 0 60 0 0 -65z m275 0 l0 -65 -62 0 -63 0 0 65 0 65 63 0 62 0
0 -65z m275 0 l0 -65 -65 0 -65 0 0 65 0 65 65 0 65 0 0 -65z m270 0 l0 -65
-65 0 -65 0 0 65 0 65 65 0 65 0 0 -65z m274 -3 l1 -62 -62 0 -63 0 0 65 0 66
62 -3 61 -3 1 -63z m274 3 l1 -65 -64 0 -65 0 0 65 0 65 63 0 64 0 1 -65z
m272 0 l0 -65 -65 0 -65 0 0 65 0 65 65 0 65 0 0 -65z m270 0 l0 -65 -65 0
-65 0 0 65 0 65 65 0 65 0 0 -65z m280 0 l0 -65 -65 0 -65 0 0 65 0 65 65 0
65 0 0 -65z m270 0 l0 -65 -65 0 -65 0 0 65 0 65 65 0 65 0 0 -65z m278 -2 l3
-63 -68 0 -69 0 3 48 c1 26 2 55 2 65 1 16 9 18 64 15 l62 -3 3 -62z m265 40
c0 -13 -1 -41 -2 -63 l-1 -40 -60 0 -60 0 0 65 0 66 62 -3 c58 -3 62 -5 61
-25z m277 -38 l0 -65 -65 0 -65 0 0 65 0 65 65 0 65 0 0 -65z m270 0 l0 -65
-65 0 -65 0 0 65 0 65 65 0 65 0 0 -65z m200 0 l0 -65 -60 0 -60 0 0 65 0 65
60 0 60 0 0 -65z m280 0 l0 -65 -65 0 -65 0 0 65 0 65 65 0 65 0 0 -65z m270
0 l0 -65 -60 0 -60 0 -1 40 c-1 22 -1 49 -1 60 0 11 0 22 1 25 1 3 28 5 61 5
l60 0 0 -65z m274 -3 l1 -62 -62 0 -63 0 0 65 0 66 62 -3 61 -3 1 -63z m276 3
l0 -65 -65 0 -65 0 0 65 0 65 65 0 65 0 0 -65z m270 0 l0 -65 -65 0 -65 0 1
65 2 65 63 0 64 0 0 -65z m270 0 l0 -65 -60 0 c-41 0 -60 4 -61 13 0 6 -2 36
-3 65 l-4 52 64 0 64 0 0 -65z m280 0 l0 -65 -65 0 -65 0 0 65 0 65 65 0 65 0
0 -65z m270 0 l0 -65 -65 0 -65 0 0 65 0 65 65 0 65 0 0 -65z m270 0 l0 -65
-60 0 -60 0 0 65 0 65 60 0 60 0 0 -65z m550 0 l0 -65 -65 0 -65 0 0 65 0 65
65 0 65 0 0 -65z m270 0 l0 -65 -64 0 -64 0 0 65 1 65 63 0 64 0 0 -65z m348
0 l2 -65 -106 0 -105 0 4 63 c3 34 5 63 6 65 1 1 45 2 99 2 l97 0 3 -65z m272
0 l0 -65 -65 0 -65 0 0 65 0 65 65 0 65 0 0 -65z m270 -1 l0 -64 -65 0 -65 0
0 65 0 66 65 -2 65 -2 0 -63z m272 44 c2 -13 1 -42 -1 -65 l-3 -43 -64 0 -64
0 0 65 0 65 64 0 c59 0 65 -2 68 -22z m818 -43 l0 -65 -65 0 -65 0 0 65 0 65
65 0 65 0 0 -65z m280 0 l0 -65 -65 0 -65 0 0 65 0 65 65 0 65 0 0 -65z m269
0 l2 -65 -66 0 -65 0 0 65 0 65 64 0 63 0 2 -65z m271 0 l0 -65 -65 0 -65 0 0
65 0 65 65 0 65 0 0 -65z m268 -2 l3 -63 -66 0 -65 0 0 58 c0 32 3 62 7 66 4
4 32 6 63 4 l55 -3 3 -62z m-9958 -138 l0 -65 -65 0 -65 0 0 65 0 65 65 0 65
0 0 -65z m270 0 l0 -65 -64 0 -64 0 -1 65 -1 65 65 0 65 0 0 -65z m271 53 c0
-7 1 -35 2 -63 l0 -50 -61 -3 c-59 -3 -62 -2 -63 20 0 13 -2 42 -4 66 l-3 42
64 0 c44 0 64 -4 65 -12z m279 -53 l0 -65 -65 0 -65 0 0 65 0 65 65 0 65 0 0
-65z m270 0 l0 -65 -65 0 -65 0 0 65 0 65 65 0 65 0 0 -65z m270 0 l0 -66 -62
3 -62 3 -4 63 -4 62 66 0 66 0 0 -65z m280 0 l0 -65 -65 0 -65 0 0 65 0 65 65
0 65 0 0 -65z m270 0 l0 -65 -65 0 -65 0 0 65 0 65 65 0 65 0 0 -65z m270 0
l0 -65 -65 0 -65 0 0 65 0 65 65 0 65 0 0 -65z m278 -2 l4 -63 -66 0 -66 0 0
65 0 66 63 -3 62 -3 3 -62z m272 2 l0 -65 -65 0 -65 0 0 65 0 65 65 0 65 0 0
-65z m270 0 l0 -65 -65 0 -65 0 0 65 0 65 65 0 65 0 0 -65z m270 0 l0 -65 -60
0 -60 0 -1 48 c0 26 -2 55 -4 65 -3 15 5 17 61 17 l64 0 0 -65z m210 0 l0 -65
-30 0 -30 0 0 65 0 65 30 0 30 0 0 -65z m270 0 l0 -65 -64 0 -65 0 0 65 0 65
65 0 64 0 0 -65z m280 0 l0 -65 -65 0 -65 0 0 65 0 65 65 0 65 0 0 -65z m270
0 l0 -65 -65 0 -65 0 0 65 0 65 65 0 65 0 0 -65z m270 0 l0 -65 -65 0 -65 0 0
65 0 65 65 0 65 0 0 -65z m279 0 l2 -65 -65 0 -66 0 0 65 0 65 63 0 64 0 2
-65z m271 0 l0 -65 -65 0 -65 0 0 65 0 65 65 0 65 0 0 -65z m270 1 l0 -63 -65
-2 -65 -1 0 65 0 65 65 0 65 0 0 -64z m271 34 c0 -16 1 -45 2 -62 l1 -33 -62
-3 -62 -3 0 50 c0 27 -3 56 -6 65 -5 14 4 16 60 16 l66 0 1 -30z m279 -35 l0
-65 -65 0 -65 0 0 65 0 65 65 0 65 0 0 -65z m270 0 l0 -65 -65 0 -65 0 0 65 0
65 65 0 65 0 0 -65z m270 0 l0 -66 -62 3 -63 3 -3 63 -3 62 65 0 66 0 0 -65z
m280 0 l0 -65 -65 0 -65 0 0 65 0 65 65 0 65 0 0 -65z m268 3 l-3 -63 -62 -3
-63 -3 0 66 0 65 65 0 66 0 -3 -62z m347 18 c12 -77 9 -81 -68 -84 l-67 -3 0
66 0 65 64 0 65 0 6 -44z m267 -21 l3 -65 -62 0 -63 0 0 65 0 65 59 0 59 0 4
-65z m276 3 l-3 -63 -62 -3 -63 -3 0 66 0 65 65 0 66 0 -3 -62z m272 -4 l0
-66 -62 4 -63 4 -3 62 -3 62 66 0 65 0 0 -66z m270 1 l0 -65 -60 0 c-41 0 -60
4 -61 13 -5 42 -5 103 -2 110 2 4 31 7 64 7 l59 0 0 -65z m274 3 l-2 -63 -61
-3 -61 -3 0 66 0 65 63 0 62 0 -1 -62z m276 -3 l0 -65 -65 0 -65 0 0 65 0 65
65 0 65 0 0 -65z m270 0 l0 -66 -61 3 -61 3 -4 63 -5 62 66 0 65 0 0 -65z
m271 48 c2 -25 2 -75 0 -95 -1 -15 -11 -18 -60 -18 -67 0 -68 1 -63 81 l4 49
59 0 c49 0 59 -3 60 -17z m279 -48 l0 -65 -65 0 -65 0 0 65 0 65 65 0 65 0 0
-65z"/>
<path d="M3362 1400 c0 -14 2 -19 5 -12 2 6 2 18 0 25 -3 6 -5 1 -5 -13z"/>
<path d="M8324 1733 c5 -10 -7 -13 -49 -13 -31 0 -55 -3 -53 -7 2 -5 17 -35
34 -68 17 -33 39 -85 49 -115 15 -44 20 -51 26 -35 4 11 8 32 8 48 1 22 6 27
27 27 14 0 23 -4 20 -9 -3 -5 1 -11 9 -15 8 -3 15 -3 15 0 0 12 -74 180 -83
189 -7 7 -8 6 -3 -2z"/>
<path d="M7225 1680 c-10 -11 -16 -22 -14 -24 2 -2 12 7 22 20 22 29 17 32 -8
4z"/>
<path d="M7670 1579 c0 -5 9 -9 20 -9 18 0 20 -7 20 -60 l0 -60 -64 0 -65 0
-3 43 -3 42 -29 -43 c-25 -36 -27 -45 -15 -53 8 -5 20 -7 27 -4 9 3 12 -13 12
-60 l0 -65 -41 0 -42 0 6 -62 c3 -34 11 -67 19 -73 7 -5 14 -17 16 -25 6 -27
51 -85 79 -102 64 -37 190 -41 258 -8 53 26 89 69 116 140 33 86 21 248 -19
265 -9 4 -36 7 -59 6 l-43 -3 0 61 c0 56 -2 62 -25 71 -32 12 -165 11 -165 -1z
m178 -206 l3 -63 -66 0 -65 0 0 65 0 66 63 -3 62 -3 3 -62z m-138 -138 l0 -65
-65 0 -65 0 0 65 0 65 65 0 65 0 0 -65z m270 16 c0 -76 -4 -81 -66 -81 l-54 0
0 65 0 65 60 0 60 0 0 -49z m-410 -118 c0 -27 -3 -34 -9 -23 -6 8 -8 17 -5 21
2 4 -3 10 -12 13 -18 7 -10 26 12 26 10 0 14 -11 14 -37z m280 -33 c0 -57 0
-58 -32 -63 -18 -2 -48 -2 -65 1 l-33 5 0 61 0 61 65 -3 65 -4 0 -58z"/>
<path d="M7915 1520 c10 -11 20 -20 23 -20 3 0 -3 9 -13 20 -10 11 -20 20 -23
20 -3 0 3 -9 13 -20z"/>
<path d="M8412 1506 c7 -8 15 -12 17 -11 5 6 -10 25 -20 25 -5 0 -4 -6 3 -14z"/>
<path d="M7910 1470 c-9 -6 -10 -10 -3 -10 6 0 15 5 18 10 8 12 4 12 -15 0z"/>
<path d="M6275 1140 c-3 -5 -1 -10 4 -10 6 0 11 5 11 10 0 6 -2 10 -4 10 -3 0
-8 -4 -11 -10z"/>
<path d="M9216 1063 c-6 -14 -5 -15 5 -6 7 7 10 15 7 18 -3 3 -9 -2 -12 -12z"/>
<path d="M8630 1005 c0 -5 5 -17 10 -25 5 -8 10 -10 10 -5 0 6 -5 17 -10 25
-5 8 -10 11 -10 5z"/>
<path d="M6846 834 c-9 -24 -7 -27 9 -10 17 17 19 26 6 26 -5 0 -12 -7 -15
-16z"/>
<path d="M1120 1890 c-18 -12 -2 -12 25 0 13 6 15 9 5 9 -8 0 -22 -4 -30 -9z"/>
<path d="M2553 1586 c-22 -8 -55 -23 -72 -35 -26 -19 -31 -29 -31 -65 0 -39
-2 -42 -27 -41 -23 0 -30 -6 -40 -35 -6 -19 -12 -52 -12 -72 -1 -38 -1 -38 39
-38 l40 0 0 -66 c0 -66 0 -66 -25 -60 -35 9 -32 -12 8 -59 l33 -38 -4 42 -4
41 48 1 c27 0 57 2 67 4 15 3 17 -5 17 -61 0 -63 0 -64 -27 -64 -22 0 -25 -2
-13 -10 17 -11 96 -13 150 -4 l36 6 -1 65 0 64 75 -2 75 -2 -3 49 c-1 27 -5
60 -8 73 -4 20 -2 23 17 18 21 -6 21 -4 16 52 -10 114 -81 206 -183 236 -62
18 -114 18 -171 1z m165 -16 c8 0 12 -19 12 -60 l0 -60 -45 -1 c-25 -1 -53 -2
-62 -3 -15 -1 -18 9 -21 61 l-3 62 33 4 c18 2 42 3 53 1 11 -2 26 -4 33 -4z
m-128 -195 l0 -65 -65 0 -65 0 0 65 0 65 65 0 65 0 0 -65z m272 8 c0 -29 -1
-57 -1 -63 -1 -5 -28 -10 -61 -10 l-60 0 0 65 0 66 61 -3 62 -3 -1 -52z m-132
-148 l0 -65 -65 0 -65 0 0 65 0 65 65 0 65 0 0 -65z"/>
<path d="M2896 1265 c4 -8 8 -15 10 -15 2 0 4 7 4 15 0 8 -4 15 -10 15 -5 0
-7 -7 -4 -15z"/>
<path d="M3170 960 c-6 -11 -8 -20 -6 -20 3 0 10 9 16 20 6 11 8 20 6 20 -3 0
-10 -9 -16 -20z"/>
<path d="M4707 1623 c-4 -3 -7 -15 -7 -25 0 -15 -8 -18 -53 -18 -29 0 -58 -5
-65 -12 -7 -7 -12 -36 -12 -65 l0 -53 73 0 72 0 -3 60 -4 60 66 0 66 0 0 -60
0 -60 70 0 c76 0 79 3 54 53 -26 50 -55 77 -85 77 -18 0 -28 6 -31 18 -4 13
-18 21 -44 25 -51 9 -89 9 -97 0z"/>
</g>
</svg>
